<svg width="34" height="34" viewBox="0 0 34 34" fill="none" xmlns="http://www.w3.org/2000/svg">
<path fill-rule="evenodd" clip-rule="evenodd" d="M23.6102 2.84741C25.6481 2.72004 27.6577 3.42764 29.172 4.81454C30.5589 6.3288 31.2665 8.33839 31.1533 10.3904V23.6084C31.2806 25.6605 30.5589 27.6701 29.1861 29.1843C27.6718 30.5712 25.6481 31.2788 23.6102 31.1515H10.3921C8.34002 31.2788 6.33042 30.5712 4.81614 29.1843C3.42923 27.6701 2.72162 25.6605 2.84899 23.6084V10.3904C2.72162 8.33839 3.42923 6.3288 4.81614 4.81454C6.33042 3.42764 8.34002 2.72004 10.3921 2.84741H23.6102ZM15.5576 23.8632L25.082 14.3106C25.9453 13.4331 25.9453 12.0179 25.082 11.1547L23.2423 9.31489C22.3648 8.43746 20.9496 8.43746 20.0722 9.31489L19.124 10.2772C18.9825 10.4187 18.9825 10.6593 19.124 10.8009C19.124 10.8009 21.3742 13.0369 21.4166 13.0935C21.5723 13.2633 21.6714 13.4897 21.6714 13.7445C21.6714 14.2539 21.261 14.6785 20.7373 14.6785C20.4967 14.6785 20.2703 14.5794 20.1146 14.4238L17.7512 12.0745C17.638 11.9613 17.4399 11.9613 17.3267 12.0745L10.5761 18.8251C10.1091 19.2921 9.84019 19.9148 9.82603 20.5799L9.74112 23.9339C9.74112 24.1179 9.79773 24.2877 9.9251 24.4151C10.0525 24.5425 10.2223 24.6132 10.4063 24.6132H13.732C14.4113 24.6132 15.0623 24.3443 15.5576 23.8632Z" fill="#F69730"/>
</svg>
